<svg width="32" height="32" viewBox="0 0 32 32" fill="none" xmlns="http://www.w3.org/2000/svg">
<path d="M1.06689 24.5329C1.06689 25.1212 1.54529 25.5996 2.13356 25.5996H24.0002C25.1768 25.5996 26.1336 24.6428 26.1336 23.4663C26.1336 18.8604 23.2285 11.2577 22.5725 9.59961H20.9096C21.2018 11.2049 21.9528 15.6508 22.292 20.6567C22.3229 21.1159 22.164 21.5687 21.8562 21.8983C21.5544 22.2209 21.1432 22.3991 20.6984 22.3991H14.3997C13.5176 22.3991 12.7997 21.6812 12.7997 20.7991V18.1324H3.85623C3.37729 18.3767 1.06689 19.7473 1.06689 23.4657V24.5329Z" fill="white"/>
<path d="M27.0493 21.3516C27.1453 22.094 27.2002 22.8065 27.2002 23.4662C27.2002 24.2865 26.8877 25.0326 26.3789 25.5996H30.9336C30.9336 24.4572 30.4893 23.3873 29.6829 22.5857C28.9698 21.8684 28.0461 21.4396 27.0493 21.3516Z" fill="white"/>
<path d="M1.60023 2.66602C1.30583 2.66602 1.06689 2.90495 1.06689 3.19935V13.866C1.06689 14.1604 1.30583 14.3993 1.60023 14.3993H12.2669C12.5613 14.3993 12.8002 14.1604 12.8002 13.866V3.19935C12.8002 2.90495 12.5613 2.66602 12.2669 2.66602H1.60023ZM8.14689 13.3327C7.71009 13.3327 7.32449 13.1924 7.00236 12.9156C6.96929 12.8874 6.89836 12.8874 6.86583 12.9156C6.54263 13.1935 6.15703 13.3332 5.72023 13.3332C4.14796 13.3332 2.66689 10.7151 2.66689 8.68575C2.66689 7.98068 2.91809 7.34335 3.31916 6.84842C2.93996 6.10335 2.81196 5.36842 2.77249 5.05855C2.72876 4.69748 2.95596 4.36308 3.29996 4.27722C4.43276 4.00255 5.77676 4.19082 6.69196 5.30228C7.05836 4.33535 7.64396 3.86708 7.67969 3.83988C7.91489 3.66442 8.25036 3.71082 8.42636 3.94602C8.60289 4.18122 8.55543 4.51562 8.32023 4.69268C8.29623 4.71188 7.78049 5.14228 7.56449 6.08628C7.88023 5.94655 8.21676 5.86602 8.56663 5.86602C10.0189 5.86602 11.2002 7.13055 11.2002 8.68522C11.2002 10.7145 9.71969 13.3327 8.14689 13.3327Z" fill="white"/>
<path d="M8.56656 6.93359C8.24229 6.93359 7.93082 7.04399 7.66629 7.25306C7.23375 7.59386 6.63215 7.59386 6.19962 7.25306C5.93562 7.04399 5.62415 6.93359 5.29935 6.93359C4.43536 6.93359 3.73242 7.72026 3.73242 8.68613C3.73242 10.4264 5.02415 12.2669 5.71909 12.2669C5.89935 12.2669 6.04229 12.2157 6.17029 12.1069C6.38682 11.9197 6.65989 11.8264 6.93242 11.8264C7.20496 11.8264 7.47855 11.9203 7.69669 12.1075C7.82309 12.2157 7.96655 12.2669 8.14682 12.2669C8.84175 12.2669 10.1335 10.4264 10.1335 8.68613C10.1335 7.71973 9.43109 6.93359 8.56656 6.93359Z" fill="white"/>
<path d="M11.1998 15.4668H3.19984C2.90544 15.4668 2.6665 15.7057 2.6665 16.0001V16.5335C2.6665 16.8279 2.90544 17.0668 3.19984 17.0668H12.7998C12.7998 16.1847 12.082 15.4668 11.1998 15.4668Z" fill="white"/>
<path d="M27.7336 29.3327C29.204 29.3327 30.4002 28.1364 30.4002 26.666H25.0669C25.0669 28.1364 26.2632 29.3327 27.7336 29.3327Z" fill="white"/>
<path d="M5.30023 5.86734C5.47943 5.86734 5.65383 5.89294 5.82557 5.93028C5.2389 5.25454 4.4741 5.17561 3.88477 5.25241C3.9349 5.49614 4.02557 5.81774 4.1701 6.15054C4.51357 5.97401 4.89437 5.86734 5.30023 5.86734Z" fill="white"/>
<path d="M6.40007 29.3327C7.87047 29.3327 9.06673 28.1364 9.06673 26.666H3.7334C3.7334 28.1364 4.92967 29.3327 6.40007 29.3327Z" fill="white"/>
<path d="M19.2 6.40039H16.5333C16.2389 6.40039 16 6.63932 16 6.93372C16 7.22812 16.2389 7.46706 16.5333 7.46706H19.2C19.4944 7.46706 19.7333 7.22812 19.7333 6.93372C19.7333 6.63932 19.4944 6.40039 19.2 6.40039Z" fill="white"/>
<path d="M24.4486 6.00296C24.4929 5.6467 24.215 5.33203 23.8561 5.33203L20.2668 5.33363C20.0822 5.33363 19.9036 5.37096 19.7329 5.43176C20.3526 5.65256 20.8001 6.23923 20.8001 6.93363C20.8001 7.62803 20.3569 8.2099 19.7414 8.43283C19.9094 8.49203 20.0838 8.53363 20.2668 8.53363H23.606C23.9073 8.53363 24.1612 8.3091 24.1985 8.01043L24.4486 6.00296Z" fill="white"/>
</svg>
