<svg width="40" height="40" viewBox="0 0 40 40" fill="none" xmlns="http://www.w3.org/2000/svg">
<rect width="40" height="40" rx="5.71429" fill="#FF5A00"/>
<g clip-path="url(#clip0_11023_16859)">
<path d="M17.6645 21.8194C16.949 21.8194 16.2092 21.4141 16.2092 20.7368C16.2092 20.0594 16.949 19.6549 17.6645 19.6549C18.0066 19.6288 18.3461 19.7316 18.6164 19.9431C18.8866 20.1545 19.068 20.4594 19.125 20.7977C19.146 20.9448 19.2234 21.078 19.3409 21.169C19.4584 21.2599 19.6067 21.3016 19.7544 21.285C19.9021 21.2685 20.0375 21.195 20.1319 21.0803C20.2264 20.9656 20.2724 20.8186 20.2603 20.6705C20.1944 20.1489 19.9617 19.6626 19.5969 19.284C19.2321 18.9055 18.7547 18.655 18.2359 18.5699V18.3566C18.2359 18.205 18.1757 18.0597 18.0685 17.9525C17.9613 17.8454 17.816 17.7852 17.6645 17.7852C17.5129 17.7852 17.3676 17.8454 17.2604 17.9525C17.1532 18.0597 17.093 18.205 17.093 18.3566V18.5699C16.5538 18.6325 16.0543 18.8843 15.6832 19.2805C15.3121 19.6767 15.0936 20.1916 15.0664 20.7337C15.116 21.3733 15.4175 21.967 15.9047 22.3843C16.3919 22.8016 17.0248 23.0084 17.6645 22.9593C18.3806 22.9593 19.1212 23.3638 19.1212 24.0412C19.1212 24.7185 18.3654 25.1231 17.6645 25.1231C17.3224 25.1496 16.9828 25.047 16.7127 24.8354C16.4426 24.6238 16.2616 24.3187 16.2054 23.9802C16.1992 23.904 16.1777 23.8298 16.1422 23.762C16.1068 23.6942 16.0581 23.6343 15.9991 23.5857C15.94 23.5371 15.8718 23.5008 15.7985 23.479C15.7252 23.4573 15.6482 23.4505 15.5722 23.459C15.4962 23.4675 15.4227 23.4912 15.356 23.5286C15.2894 23.5661 15.2309 23.6165 15.184 23.677C15.1372 23.7375 15.103 23.8067 15.0835 23.8807C15.0639 23.9546 15.0594 24.0317 15.0702 24.1074C15.1359 24.6288 15.3684 25.115 15.7329 25.4935C16.0974 25.872 16.5745 26.1226 17.093 26.208V26.4213C17.093 26.5729 17.1532 26.7182 17.2604 26.8254C17.3676 26.9326 17.5129 26.9928 17.6645 26.9928C17.816 26.9928 17.9613 26.9326 18.0685 26.8254C18.1757 26.7182 18.2359 26.5729 18.2359 26.4213V26.2073C18.7753 26.1452 19.2752 25.8937 19.6466 25.4976C20.018 25.1015 20.2368 24.5865 20.2641 24.0442C20.2143 23.4045 19.9124 22.8107 19.4249 22.3935C18.9374 21.9763 18.3042 21.7698 17.6645 21.8194Z" fill="white"/>
<path d="M29.9043 16.2013H23.3633C23.3114 16.2046 23.2602 16.2148 23.211 16.2318C22.6569 15.6051 22.0154 15.0616 21.3062 14.6181C21.4319 14.3781 21.5866 14.0916 21.7633 13.78C22.1066 13.1201 22.5386 12.5102 23.0472 11.9674C24.0125 11.1643 23.79 10.4268 23.6498 10.1472C23.3153 9.47597 22.4193 9.22683 21.2704 9.50721C20.959 9.60912 20.6293 9.64288 20.3036 9.60621C19.978 9.56953 19.6641 9.46327 19.3832 9.29463C18.8812 8.95 18.2872 8.76433 17.6783 8.76175C17.0695 8.75916 16.4739 8.93979 15.9691 9.28016C15.6798 9.45579 15.3556 9.56608 15.0192 9.60333C14.6828 9.64057 14.3423 9.60387 14.0216 9.49578C12.9138 9.22454 12.0178 9.47597 11.6864 10.1403C11.5433 10.4529 11.5205 10.8073 11.6222 11.1356C11.724 11.464 11.9432 11.7433 12.238 11.9202C12.7722 12.4813 13.2245 13.1151 13.5812 13.8028C13.7519 14.0992 13.9073 14.3849 14.0338 14.628C11.1012 16.4611 9.0601 20.4276 9.05934 25.0303C9.05788 25.8503 9.12388 26.669 9.25668 27.4783C9.06134 27.7134 8.9202 27.9887 8.8433 28.2846C8.76639 28.5805 8.75561 28.8897 8.81172 29.1903C8.899 29.4405 9.04318 29.6671 9.2329 29.8522C9.42262 30.0373 9.65271 30.1758 9.90506 30.2569C10.0456 30.3121 10.1917 30.352 10.3409 30.3758C10.5996 30.4242 10.8625 30.4467 11.1256 30.4428C11.406 30.4454 11.686 30.466 11.9637 30.5045C12.3352 30.5565 12.7031 30.6313 13.0654 30.7285C14.5677 31.11 16.1157 31.2813 17.6651 31.2375C19.2147 31.2814 20.763 31.1098 22.2654 30.7278C22.6293 30.6308 22.9988 30.556 23.3717 30.5038C24.375 31.1069 25.5547 31.3478 26.7142 31.1865C27.8736 31.0251 28.9427 30.4713 29.7432 29.6172C30.5437 28.7631 31.0273 27.6604 31.1133 26.493C31.1994 25.3255 30.8826 24.1639 30.2159 23.2017C30.5071 23.132 30.7663 22.9663 30.9518 22.7314C31.1373 22.4964 31.2382 22.2058 31.2384 21.9064V17.5346C31.238 17.181 31.0973 16.842 30.8472 16.592C30.597 16.342 30.2579 16.2015 29.9043 16.2013ZM26.0049 20.9922C25.9089 20.9922 25.8152 21.0013 25.7207 21.0066C25.6254 20.6668 25.5211 20.3346 25.4045 20.0162H30.0955V21.9064C30.0955 21.957 30.0755 22.0054 30.0397 22.0411C30.004 22.0769 29.9556 22.0969 29.9051 22.0969H29.1782C28.2758 21.3805 27.1571 20.991 26.0049 20.9922ZM29.9043 17.3442C29.9548 17.3442 30.0033 17.3642 30.039 17.3999C30.0747 17.4357 30.0948 17.4841 30.0948 17.5346V18.868H24.9313C24.6811 18.3391 24.3915 17.8297 24.0651 17.3442H29.9043ZM14.5824 13.2527C14.168 12.459 13.6406 11.7296 13.0167 11.0874C12.7119 10.8344 12.6929 10.6836 12.7051 10.6584C12.7355 10.5983 13.0586 10.439 13.71 10.5952C14.1867 10.749 14.6912 10.797 15.1884 10.7358C15.6855 10.6746 16.1633 10.5057 16.5885 10.2409C16.9099 10.023 17.2899 9.90772 17.6782 9.91017C18.0666 9.91262 18.445 10.0327 18.7637 10.2546C19.1805 10.5129 19.6482 10.6781 20.1348 10.7388C20.6213 10.7996 21.1153 10.7545 21.5828 10.6066C22.2761 10.4383 22.5984 10.5983 22.6289 10.6592C22.6479 10.6973 22.5953 10.8573 22.2692 11.1346C21.6707 11.7601 21.1631 12.4667 20.7614 13.2337C20.5778 13.5529 20.4209 13.8432 20.2936 14.0863C19.4658 13.7247 18.5722 13.5381 17.6689 13.5381C16.7655 13.5381 15.8719 13.7247 15.0441 14.0863C14.9146 13.8447 14.7584 13.5567 14.5824 13.2527ZM17.6643 30.0977C16.2067 30.1401 14.7502 29.9798 13.3367 29.6215C12.9337 29.5141 12.5246 29.4311 12.1115 29.3731C11.7833 29.3281 11.4524 29.3045 11.1211 29.3023C10.9223 29.305 10.7237 29.2879 10.5283 29.2512C10.4622 29.2412 10.3974 29.2243 10.3348 29.2009C10.0902 29.0973 9.94087 28.9838 9.91191 28.8824C9.89515 28.8215 9.87306 28.583 10.2746 28.0101L10.2974 27.9842C10.3512 27.92 10.3901 27.8449 10.4116 27.7641C10.433 27.6832 10.4365 27.5987 10.4216 27.5163C10.2734 26.696 10.1999 25.8639 10.2022 25.0303C10.2022 19.3259 13.5508 14.6843 17.6643 14.6843C20.7302 14.6843 23.4548 17.2794 24.5885 21.1956C23.7502 21.4349 22.987 21.8846 22.3715 22.502C21.7561 23.1194 21.3087 23.884 21.072 24.723C20.8353 25.5621 20.8172 26.4477 21.0192 27.2957C21.2213 28.1438 21.6369 28.926 22.2266 29.5682C22.1504 29.5864 22.0742 29.6032 21.9934 29.6223C20.5794 29.9806 19.1224 30.1406 17.6643 30.0977ZM26.0049 30.0977C25.217 30.0978 24.4468 29.8643 23.7917 29.4268C23.1365 28.9892 22.6259 28.3671 22.3243 27.6393C22.0227 26.9115 21.9437 26.1105 22.0973 25.3378C22.2509 24.5651 22.6302 23.8553 23.1873 23.2981C23.7443 22.741 24.454 22.3616 25.2267 22.2078C25.9994 22.054 26.8004 22.1329 27.5282 22.4343C28.2561 22.7358 28.8783 23.2463 29.316 23.9014C29.7537 24.5565 29.9873 25.3266 29.9873 26.1144C29.9867 27.1707 29.567 28.1835 28.8204 28.9306C28.0737 29.6777 27.0611 30.098 26.0049 30.0992V30.0977Z" fill="white"/>
<path d="M26.0047 25.5445C25.5758 25.5445 25.1125 25.3068 25.1125 24.9228C25.1125 24.5388 25.5758 24.3003 26.0047 24.3003C26.2125 24.2827 26.4194 24.3433 26.5849 24.4701C26.7505 24.5969 26.8628 24.7808 26.9 24.986C26.906 25.0625 26.9273 25.137 26.9626 25.205C26.998 25.2731 27.0467 25.3334 27.1058 25.3822C27.1649 25.4311 27.2333 25.4676 27.3068 25.4895C27.3803 25.5115 27.4574 25.5184 27.5337 25.5099C27.6099 25.5015 27.6837 25.4777 27.7505 25.4402C27.8174 25.4026 27.8761 25.352 27.923 25.2913C27.9699 25.2306 28.0042 25.1612 28.0237 25.087C28.0433 25.0128 28.0477 24.9354 28.0367 24.8595C27.9889 24.4721 27.8231 24.1087 27.5618 23.8185C27.3006 23.5284 26.9565 23.3255 26.5762 23.2374V23.2062C26.5762 23.0546 26.5159 22.9093 26.4088 22.8021C26.3016 22.695 26.1563 22.6348 26.0047 22.6348C25.8532 22.6348 25.7078 22.695 25.6007 22.8021C25.4935 22.9093 25.4333 23.0546 25.4333 23.2062V23.2367C25.0337 23.3088 24.6707 23.5153 24.4045 23.822C24.1384 24.1286 23.9849 24.517 23.9697 24.9228C24.0056 25.4266 24.2401 25.8956 24.6218 26.2265C25.0034 26.5574 25.5009 26.7232 26.0047 26.6873C26.4337 26.6873 26.8969 26.9258 26.8969 27.3098C26.8969 28.0481 25.2207 28.231 25.1087 27.2466C25.1025 27.1704 25.081 27.0962 25.0456 27.0284C25.0101 26.9606 24.9614 26.9007 24.9024 26.852C24.8433 26.8034 24.7751 26.7672 24.7018 26.7454C24.6285 26.7237 24.5516 26.7168 24.4756 26.7253C24.3996 26.7339 24.326 26.7576 24.2594 26.795C24.1927 26.8325 24.1342 26.8829 24.0874 26.9434C24.0406 27.0039 24.0063 27.0731 23.9868 27.1471C23.9672 27.221 23.9627 27.2981 23.9735 27.3738C24.022 27.7605 24.188 28.123 24.4491 28.4124C24.7101 28.7018 25.0536 28.9041 25.4333 28.9921V29.0233C25.4333 29.1749 25.4935 29.3202 25.6007 29.4274C25.7078 29.5346 25.8532 29.5948 26.0047 29.5948C26.1563 29.5948 26.3016 29.5346 26.4088 29.4274C26.5159 29.3202 26.5762 29.1749 26.5762 29.0233V28.9929C26.9758 28.9209 27.3389 28.7144 27.6051 28.4077C27.8713 28.101 28.0247 27.7126 28.0398 27.3068C28.0033 26.8033 27.7685 26.335 27.3869 26.0045C27.0053 25.6741 26.5082 25.5086 26.0047 25.5445Z" fill="white"/>
</g>
<defs>
<clipPath id="clip0_11023_16859">
<rect width="22.8571" height="22.8571" fill="white" transform="translate(8.57129 8.57227)"/>
</clipPath>
</defs>
</svg>
