<svg width="32" height="31" viewBox="0 0 32 31" fill="none" xmlns="http://www.w3.org/2000/svg">
<path d="M32 15.2889C32 16.923 30.1485 18.2453 29.6686 19.7198C29.1712 21.248 29.8729 23.4001 28.9449 24.6722C28.0077 25.957 25.733 25.9518 24.4452 26.8868C23.1701 27.8126 22.4772 29.9776 20.9454 30.4738C19.4674 30.9525 17.638 29.6229 16 29.6229C14.362 29.6229 12.5326 30.9525 11.0546 30.4738C9.5228 29.9776 8.8299 27.8126 7.55483 26.8868C6.26701 25.9518 3.99232 25.957 3.05509 24.6722C2.12714 23.4002 2.82877 21.248 2.33138 19.7198C1.85149 18.2453 0 16.923 0 15.2889C0 13.6548 1.85149 12.3325 2.33138 10.858C2.82877 9.32979 2.12714 7.17766 3.05509 5.9056C3.99232 4.62082 6.26701 4.626 7.55483 3.69098C8.82986 2.76522 9.52276 0.600172 11.0546 0.103993C12.5326 -0.374761 14.362 0.954833 16 0.954833C17.638 0.954833 19.4674 -0.374761 20.9454 0.103993C22.4772 0.600211 23.1701 2.76526 24.4452 3.69098C25.733 4.626 28.0077 4.62082 28.9449 5.9056C29.8729 7.17762 29.1712 9.32975 29.6686 10.858C30.1485 12.3325 32 13.6547 32 15.2889Z" fill="#55AE7B"/>
<path d="M21.2685 10.1653L13.4157 18.0089C12.3245 16.8278 10.6322 14.996 10.6322 14.996C10.1158 14.4375 9.24297 14.3943 8.67434 14.9034C8.10082 15.4168 8.05311 16.2969 8.56777 16.869L12.3134 21.0331C12.37 21.0971 12.4298 21.1614 12.4977 21.2155C13.0826 21.6983 13.949 21.6167 14.433 21.0331L22.5112 11.2928C23.1613 10.4467 22.0446 9.4395 21.2685 10.1653Z" fill="white"/>
</svg>
